<svg xmlns="http://www.w3.org/2000/svg" height="800" width="1200" viewBox="-20.625 -4.738225 178.75 28.42935"><path d="M18.6 18.1c2.4 0 6.3-1.4 6.3-5.1 0-2.7-2-4.2-2-4.2s3.6-1.4 3.6-4.5C26.5 0 22 0 22 0H3.9L0 18.1zM16.9 4.3s1.6 0 1.2 1.4c-.3 1.1-1.4 1.1-1.4 1.1h-7l.5-2.5zm-1.3 6.5s1.6 0 1.2 1.4c-.3 1.1-1.4 1.1-1.4 1.1h-7l.6-2.5zM37.3 0h-7.2l-.7 3.2h7.3zm-8.2 4.8l-3 13.4h7.5l2.6-13.4zm16.2 9.9c-1.5 0-2.3-.5-2.1-1.1.4-1.7 5.7-1 7.2-1.3.7.7-1.8 2.5-5.1 2.4m11.1 3.4l2-9.4c0-1.2-.3-5.6-8.4-5.5-7.4.1-10.6 2-11.3 4.8h7.2c.5-1.1 2.1-1.2 3.2-1.2.8 0 2.6 0 2.4 1.4-.3 1.7-13-1.3-14.5 5.1-.7 2.8.1 4.8 5 5.2 4.1.3 7.8-1.2 7.8-1.2v.8zM92.3 3.2c5.8-.5 10.9 2.6 11.3 6.9h-7.7c-.2-1.1-.8-1.9-1.9-2.2-1.6-.5-3.6.6-4.1 2.3-.5 1.8.4 3.5 2 3.9 1.6.5 3.3-.5 3.8-2.2h7.7c-.8 3.6-4.8 6.6-9.8 7-5.9.5-10.9-2.6-11.3-7-.3-4.2 4.1-8.2 10-8.7m36.9 1.6l-3 13.4h7.5l2.7-13.4zm-70 13.3h7.3l1.6-7.9c.1-.3.3-2 2.8-2 2.2 0 2.1 1.5 2 2.1-.1.5-1.6 7.8-1.6 7.8h7.6l1.6-8c1.2-4-.8-6.6-5.2-6.6-2.8 0-5.9 1.3-5.9 1.3l.2-1h-7.3zm44.9 0h7.3l1.6-7.9c.1-.3.3-2 2.8-2 2.2 0 2.1 1.5 2 2.1-.1.5-1.6 7.8-1.6 7.8h7.6l1.6-8c1.2-4-.8-6.6-5.2-6.6-2.8 0-5.9 1.3-5.9 1.3l1-4.8H108zM137.5 0h-7.2l-.7 3.2h7.2z" fill="#010202"/></svg>