<svg xmlns="http://www.w3.org/2000/svg" height="800" width="1200" viewBox="-35.43705 -8.90835 307.1211 53.4501"><path d="M199.1764 4.6813h-12.4275l-9.2575 30.0275h13.9675l9.07-30.0275zm-108.9475 6.585h-12.025l-8.515 23.4425H82.53l4.8713-12.3375c.5175-.3913 1.9525-1.4513 3.4825-2.39 1.885-1.1588 3.3862-1.5475 4.1412-1.4063-.05.3925-.0875.8988-.0875 1.435 0 .4938.0375 1.0138.1388 1.4888.2825 1.31 1.2875 3.505 4.8312 3.4962 1.8963 0 3.1775-.275 4.1475-.9137.985-.6488 1.5275-1.57 2.04-2.7538v-.0125c1.2988-3.15.5013-5.165-.3975-6.3012-.9587-1.2125-2.2012-1.6563-2.34-1.7025-3.1812-1.14-6.8112-.9613-10.4787.5212-.9475.3813-1.83.8013-2.5875 1.1875.05-.1262 1.3675-3.75 1.3675-3.75h-1.4363zm57.5862 0h-7.915s-10.6887 10.7475-12.1137 12.1787l-5.8913-12.1787h-16.655l7.7325 14.5912 4.755 8.8525h9.7775l22.68-23.4425h-2.37zM3.714 16.61c-2.45 2.4575-3.7625 5.32-3.7125 8.0588 0 2.845 1.525 5.475 4.1375 7.4075 2.9125 2.1387 9.7 5.1687 22.575 1.425l.125-.025v-.0125l2.0125-.9488 1.6375-1.01c.9-.6137 2.5625-2.1362 2.6375-2.2l.7625-.7-2.7375-2.815-.6875.4138c-5.35 3.2412-10.4 4.0675-13.875 2.2662-1.775-.9212-2.95-2.4837-3.05-4.0775-.1625-2.2562.7625-4.31 2.525-5.635 2.2875-1.7225 5.6125-2.005 9.2-.8975 0 .35-.125.7463-.125 1.1213v.1287c0 .9863.4375 2.3738 2.2 3.3763v.0375l.125.025c3.7625 1.55 6.4-.0375 7.5125-1.8688.7-1.1275.9125-2.4662.5875-3.6737-.2875-1.1525-1.025-2.0863-2.1125-2.7013l.125.075c-2.0625-1.5737-3.9125-2.5462-5.9875-3.1537-1.9875-.58-4.0625-.775-6.375-.955-6.9125-.1-13.4125 2.2725-17.475 6.3437m202.6387-3.7837c-4.455 1.9487-7.8562 5.15-9.0975 8.5612-.3287.905-.4912 1.7938-.4912 2.6575 0 2.4088 1.265 4.6213 3.71 6.3988 2.835 2.0587 7.0787 3.4275 11.9512 3.8537 4.73.415 9.865-.2425 14.0888-1.8037 4.73-1.7463 7.9912-4.5075 9.18-7.7738 1.2762-3.5075.2075-7.1625-2.8588-9.7762-3.0212-2.575-7.44-4.2538-12.4412-4.7288-4.2763-.4075-9.2638.52-14.0413 2.6113m5.39 14.6312c-.4662-1.1387-.3962-2.7675.1925-4.4687.6225-1.7988 1.7375-3.4913 3.14-4.7638 1.32-1.1975 2.7713-1.885 3.9788-1.885 1.3387 0 1.9575.8275 2.2425 1.5213.4662 1.1387.3962 2.7687-.1925 4.47-.6238 1.8-1.7388 3.4925-3.1413 4.7625-1.3187 1.1987-2.7687 1.885-3.9787 1.885-1.3375 0-1.9575-.8263-2.2413-1.5213M54.7014 10.2688c-7.925.545-17.025 5.4475-18.5375 12.7062v.15c-.3375 5.92 2.75 9.8788 8.9125 11.4475 4.6875 1.1925 10.2625 1.2813 13.3375.7513 1.925-.3625 3.825-1.0538 5.6375-2.0588 1.65-.9137 3.25-2.08 4.9-3.5662l.8875-.81-2.525-1.9288-.6125.4688c0 .0125-1.8125 1.3787-4.1375 2.1537-2.5.8338-6.4625 1.5625-8.7625 1.3413-2.6875.05-4.4-1.6338-4.9875-2.6363-.225-.3925-.3-.9937-.3-1.5825 0-.4537 0-.8862.125-1.225h22l.125-.9175c0-.535.125-1.0575.125-1.57 0-3.5587-1.125-6.5637-3.275-8.7562-2.825-2.8775-7.4375-4.3213-12.65-3.9613m5.2125 7.0163c.675.6687.9875 1.48 1.1375 2.1075h-11.05c1.0125-1.4225 2.9375-3.4125 5.8625-3.4538 1.775-.0175 3.1375.4325 4.05 1.3375m102.34-7.0162c-7.92.545-17.02 5.4475-18.5363 12.7062l-.0125.075v.075c-.3412 5.92 2.7363 9.8775 8.9 11.4475 4.6913 1.1925 10.2638 1.2813 13.3425.7513 1.9325-.3625 3.8238-1.0538 5.6375-2.0588 1.655-.915 3.2563-2.0812 4.8963-3.5662l.8937-.81-2.5212-1.9288-.6113.4688c-.0125.0125-1.8137 1.3787-4.1462 2.1537-2.4988.8338-6.4575 1.5625-8.7575 1.3413h-.125c-2.6838.05-4.3963-1.6338-4.9838-2.635-.2312-.3938-.3087-.9963-.3087-1.5863 0-.4525.05-.885.1-1.2225h21.9975l.075-.9175c.05-.535.0625-1.0575.0625-1.57 0-3.5587-1.1163-6.5637-3.27-8.7562-2.8263-2.8775-7.4363-4.3213-12.65-3.9613m5.2162 7.0163c.6713.6687.9863 1.48 1.1388 2.1075-1.665.0012-8.6038 0-11.05 0 1.01-1.4225 2.9325-3.4125 5.855-3.4538 1.7825-.0175 3.1475.4325 4.0562 1.3375M179.044 0h-12.2713l-6.8937 9.3813 8.78.0262L182.2639 0z"/></svg>