<?xml version="1.0" encoding="utf-8"?>
<!-- Generator: Adobe Illustrator 26.0.3, SVG Export Plug-In . SVG Version: 6.00 Build 0)  -->
<svg version="1.0" id="katman_1" xmlns="http://www.w3.org/2000/svg" xmlns:xlink="http://www.w3.org/1999/xlink" x="0px" y="0px"
	 viewBox="0 0 600 450" style="enable-background:new 0 0 600 450;" xml:space="preserve">
<g id="Livello_2">
	<g id="Livello_1-2">
		<path d="M510.3,202.1c-16,0-28.9,9.4-28.9,27.9c0,18.5,12.9,27.9,28.9,27.9c16.1,0,28.9-9.5,28.9-27.9
			C539.1,211.5,526.3,202.1,510.3,202.1z M510.3,246.4c-6.4,0-12.4-3.6-12.4-16.4s6-16.4,12.4-16.4c6.3,0,12.4,3.7,12.4,16.4
			C522.7,242.8,516.5,246.4,510.3,246.4z"/>
		<path d="M425,230.1c0,18.5,13.7,27.9,31,27.9c8.5,0,14.6-2,19.6-4.9v-21.2h-14.5v13.5c-1.5,0.5-3,0.8-4.6,0.8
			c-8.6,0-15.1-3.6-15.1-16.1s7.4-16.2,15.5-16.2c3.6,0,10.2,1.5,14.8,5.6h1.5V207c-3.8-3-10.6-4.9-18.2-4.9
			C438.3,202.1,425,211.5,425,230.1"/>
		<path d="M401.4,203h-15.7l1.9,4.5l-21.8,49.6h13.7l3.6-8.3h21.3l3.4,8.3h16.1L401.4,203z M387.2,239.2l6.8-15.8l6.5,15.8H387.2z"
			/>
		<polygon points="347.2,203 347.2,229.2 328.6,203 310.1,203 314.5,209.4 314.5,257.1 327.3,257.1 327.3,226.2 349.4,257.1 
			359.9,257.1 359.9,203 		"/>
		<polygon points="269.4,203 269.4,257.1 307.2,257.1 307.2,245.5 284.8,245.5 284.8,203 		"/>
		<path d="M232.4,202.1c-16,0-28.9,9.4-28.9,27.9c0,18.5,12.9,27.9,28.9,27.9c16.1,0,28.9-9.5,28.9-27.9
			C261.3,211.5,248.5,202.1,232.4,202.1z M232.4,246.4c-6.4,0-12.4-3.6-12.4-16.4s6-16.4,12.4-16.4c6.3,0,12.4,3.7,12.4,16.4
			C244.8,242.8,238.6,246.4,232.4,246.4z"/>
		<path d="M166.2,230.1c0-12.6,7.5-16.2,15.8-16.2c3.6,0,10,1.5,14.6,5.6h1.5V207c-3.8-3-10.6-4.9-18.2-4.9
			c-16.8,0-30.1,9.4-30.1,27.9s13.3,27.9,30.1,27.9c7.6,0,14.4-1.9,18.2-4.9v-12.7h-1.5c-4.6,4.5-11,5.9-14.6,5.9
			C173.7,246.3,166.2,242.6,166.2,230.1"/>
		<path d="M100,226.7h-2.1c-0.7,0-1.3-0.5-1.3-1.2c0,0,0,0,0-0.1v-2.2c0-1.8,1-2.4,3.9-3.9c4.7-2.3,8.3-6.4,8.3-13
			c0-7.5-6.2-13.6-13.9-13.6c-7.6,0-13.9,6.1-13.9,13.7c0,6.6,3.6,10.7,8.4,13c2.9,1.4,3.9,2.1,3.9,3.9v2.2c0,0.7-0.5,1.2-1.2,1.3
			c0,0,0,0-0.1,0H90c-1.8,0-2.3-0.8-3.8-3.6c-2.2-4.4-6-7.8-12.1-7.8c-7.1,0-12.9,6-12.9,13.1c0,7.1,5.9,13,12.9,13
			c6.2,0,9.9-3.4,12.1-7.8c1.4-2.8,2-3.6,3.8-3.6H92c0.6,0,1.2,0.4,1.3,1.1v5.6c0,8.5-8.8,17-13.6,17v3.3h30.4v-3.3
			c-4.7,0-13.5-8.5-13.5-17v-5.6c0.1-0.6,0.6-1.1,1.3-1.1h2.1c1.8,0,2.3,0.8,3.7,3.6c2.2,4.4,6.1,7.8,12.1,7.8
			c7.2,0,13.1-5.9,13.1-13.1c0-7.2-5.9-13.1-13.1-13.1c-6.1,0-9.9,3.4-12.1,7.8C102.3,225.9,101.8,226.7,100,226.7"/>
	</g>
</g>
</svg>
