<svg xmlns="http://www.w3.org/2000/svg" xmlns:xlink="http://www.w3.org/1999/xlink" height="800" width="1200" version="1.0" viewBox="-94.1034 -36.66575 815.5628 219.9945"><defs><radialGradient r="79.025" fy="440.835" fx="144.021" cy="440.835" cx="144.021" gradientTransform="matrix(-.67512 0 0 -1.01878 693.8 648.757)" gradientUnits="userSpaceOnUse" id="b" xlink:href="#a"/><linearGradient id="a"><stop offset="0" stop-color="#b4202d"/><stop offset="1" stop-color="#4c1015"/></linearGradient></defs><path d="M40.92 111.965c3.142-1.42 5.311-4.616 8.933-13.163 6.163-14.548 6.226-16.296.775-21.576a177.804 177.804 0 00-7.25-6.564c-4.507-3.818-5.55-5.286-5.553-7.82-.004-2.344 3.142-10.37 5.15-13.141 2.71-3.742 2.535-3.703 16.44-3.63l12.43.065 1.133-2.332c.623-1.283 1.133-2.441 1.133-2.574s-8.913-.237-19.806-.231c-18.122.01-19.979.091-21.85.95-1.124.516-2.44 1.384-2.923 1.93-1.4 1.576-8.188 18.034-8.47 20.537l-.256 2.271 4.525 4.145c11.85 10.854 12.617 11.706 12.585 13.973-.052 3.807-7.266 19.388-9.722 21-1.122.735-3.138.883-13.907 1.02l-12.595.16-.846 1.774c-.465.976-.846 2.358-.846 3.072v1.298l19.55-.17c16.616-.146 19.823-.295 21.37-.994zm19.191.585l6.701-.007 5.305-12.078c3.743-8.52 5.608-12.2 6.333-12.491.565-.228 6.326-1.123 12.802-1.99 13.698-1.832 14.724-2.073 17.549-4.119 2.36-1.71 4.999-6.762 11.603-22.222 4.832-11.308 5.07-15.225 1.08-17.658-1.535-.936-2.703-.993-20.284-.985l-18.656.01L66.82 76.648c-8.65 19.602-15.721 35.839-15.717 36.082.004.243.525.304 1.158.135.632-.17 4.165-.312 7.85-.316zM81 80.895c.141-.444 3.561-8.512 7.6-17.93l7.343-17.122 4.219-.149c5.043-.179 6.66.549 6.66 2.995 0 .85-1.638 5.617-3.642 10.594-6.418 15.944-8.414 19.4-11.844 20.5-.9.29-3.65.84-6.114 1.222-4.047.63-4.454.619-4.222-.11zm68.355 29.474a145.195 145.195 0 001.204-3.065c.307-.836-.46-.894-11.703-.894-11.299 0-12.05-.058-12.334-.955-.38-1.196-.275-1.477 5.706-15.273l4.93-11.372h20.06l1.125-2.314c.618-1.272 1.124-2.422 1.124-2.555s-4.485-.242-9.967-.242c-5.481 0-9.966-.191-9.966-.424 0-.739 9.567-22.904 10.502-24.33 1.86-2.84 3.03-3.084 15.61-3.27l11.546-.169 1.097-2.26 1.098-2.258h-38.12l-2.599 1.295c-1.608.802-3.093 2.041-3.893 3.25-1.7 2.57-25.236 57.623-25.9 60.583-.599 2.676-.102 4.412 1.607 5.609 1.019.713 3.523.818 19.582.816l18.414-.002zm50.709-.588c.441-1.519.803-2.895.803-3.057 0-.163-5.323-.357-11.828-.433-10.264-.119-11.897-.247-12.351-.967-.406-.644 2.08-6.904 11.064-27.855 6.374-14.864 12.047-27.779 12.607-28.7.56-.92 1.61-1.898 2.33-2.172.721-.274 6.594-.498 13.051-.498h11.74l1.005-2.342c.552-1.289 1.004-2.439 1.004-2.556 0-.492-38.182-.178-40.007.328-3.806 1.057-4.28 1.953-17.824 33.703-14.066 32.971-14.296 33.69-11.524 36.076l1.434 1.235h37.693zM237.41 81.25a23613.186 23613.186 0 0015.173-35.775l1.884-4.487H238.36l-15.228 35.139c-8.376 19.326-15.341 35.426-15.48 35.777-.195.496 1.626.638 8.109.636l8.36-.003zm18.006 16.73l9.594-14.562 6.548-.004 6.548-.004-.293 2.172c-.264 1.957-2.837 26.208-2.837 26.74 0 .122 3.544.221 7.875.221h7.874l.31-2.427c.171-1.336 1.45-16.343 2.843-33.35s2.663-32.015 2.822-33.35l.29-2.428h-7.71c-8.623 0-9.424.223-12.306 3.417-1.304 1.445-43.574 63.298-46.106 67.466-.33.544 1.055.672 7.273.672h7.682zm15.17-20.513c.359-.934 8.948-15.637 9.368-16.035.272-.258.136 1.367-.946 11.372l-.594 5.495h-4.073c-3.552 0-4.033-.107-3.755-.832zm61.653 32.734c1.697-3.96 2.025-3.791-7.388-3.791-4.615 0-8.755-.14-9.2-.31-.462-.178-.808-.904-.808-1.698 0-.763 5.865-15.256 13.033-32.207 7.169-16.95 13.034-30.912 13.034-31.026 0-.114-3.62-.144-8.046-.066l-8.045.14-3.992 9.2c-25.773 59.396-25.324 58.163-22.183 60.866l1.434 1.234h31.157zm36.823-32.669c8.129-19.115 14.912-35.164 15.074-35.663.275-.847-.238-.898-7.737-.767l-8.032.141-15.457 35.662-15.457 35.662 8.415-.14 8.415-.14zm38.956 32.839a92.484 92.484 0 011.125-3.067c.342-.839-.508-.894-13.716-.894-8.76 0-14.198-.192-14.393-.507-.172-.28-.124-.846.107-1.26.488-.87 20.464-22.733 38.224-41.832 6.746-7.255 12.899-14.018 13.672-15.028 1.66-2.168 1.805-4.352.383-5.773-.987-.988-1.703-1.022-21.163-1.022h-20.14l-.815 2.39c-.448 1.316-.815 2.58-.815 2.812 0 .231 5.621.42 12.492.42 7.55 0 12.614.197 12.8.498.356.577-1.383 2.505-30.905 34.257-22.452 24.149-24.7 26.929-23.535 29.106.296.553.938 1.239 1.427 1.524.56.326 8.931.523 22.69.532l21.802.016zm49.708-.654c.687-1.554 1.25-2.934 1.25-3.066 0-.133-5.262-.241-11.693-.241-13.451 0-13.46-.003-12.198-3.693.41-1.202 2.882-7.072 5.493-13.046l4.746-10.861h20.092l1.124-2.314c.619-1.272 1.124-2.422 1.124-2.555s-4.484-.242-9.966-.242c-5.788 0-9.967-.2-9.967-.475 0-1.025 9.85-23.585 10.856-24.864 1.968-2.503 3.483-2.772 15.604-2.772h11.159l1.117-2.3 1.117-2.3-19.032.011c-21.297.013-21.526.047-24.716 3.68-1.84 2.096-26.217 58.637-26.64 61.793-.142 1.056-.106 2.524.079 3.261.652 2.597 1.965 2.768 21.412 2.79l17.79.02zm38.868 2.316c12.463 0 12.879-.034 14.52-1.151.929-.633 2.368-1.995 3.199-3.027.867-1.077 6.634-13.711 13.533-29.644 10.406-24.035 12.056-28.196 12.268-30.954.24-3.098.196-3.236-1.55-4.983l-1.798-1.797h-41.28l-14.26 33.35c-7.843 18.342-14.806 34.594-15.474 36.115l-1.214 2.765 9.613-.336c5.288-.185 15.387-.337 22.443-.338zm-12.868-6.518c.157-.492 5.907-14.004 12.778-30.027l12.494-29.134h6.398c7.107 0 7.673.224 7.57 2.988-.057 1.511-6.081 15.943-19.333 46.316-1.959 4.491-3.64 7.554-4.84 8.817l-1.837 1.935h-6.758c-6.204 0-6.735-.074-6.472-.895z"/><path d="M598.619 288.179c-.365-.521-.664-1.104-.664-1.296 0-.733-2.669-3.625-3.346-3.625-.803 0-3.427-3.017-4.205-4.833-.28-.658-1.103-1.944-1.826-2.859-.723-.915-1.713-2.446-2.2-3.403-.487-.957-1.374-2.266-1.971-2.91-3.004-3.24-3.461-4.395-3.675-9.276-.11-2.51-.323-5.22-.474-6.021-.218-1.163-.126-1.514.451-1.735.399-.153 1.078-.057 1.51.213.723.45.747.414.296-.455a59.111 59.111 0 00-.843-1.568c-.808-1.424-.805-1.688.027-2.747.48-.609.872-1.632.872-2.274 0-.642.187-1.283.415-1.424.23-.141.415-.947.414-1.792-.002-1.44.895-4.794 1.716-6.414.2-.397.365-1.005.365-1.351 0-.394.389-.63 1.04-.63 1.01 0 1.04-.08 1.04-2.95 0-2.599.098-2.974.83-3.166.674-.176.832-.567.832-2.053 0-2.078.671-2.622 2.31-1.875.961.438.986.416.494-.456-.284-.505-.781-1.128-1.104-1.385-.725-.578-.307-1.836.61-1.836.556 0 .625-.292.393-1.663-.276-1.635-.26-1.663.975-1.663.89 0 1.333.242 1.52.832.145.458.586 1.004.98 1.215.624.334.695.202.552-1.025-.09-.775-.426-1.625-.744-1.89-.32-.265-.58-1.127-.58-1.917 0-1.37.062-1.43 1.35-1.304 1.165.114 1.327.017 1.17-.696-.101-.456-.195-1.577-.208-2.491-.023-1.523.074-1.675 1.147-1.798 1.04-.12 1.16-.284 1.064-1.455-.127-1.558.4-3.608.927-3.608.204 0 .37-.267.37-.594 0-.327.245-.841.544-1.143.298-.303.664-.87.813-1.263.16-.424-.946.156-2.726 1.43a786.863 786.863 0 01-4.243 3.017c-.687.48-2.02 1.615-2.964 2.52-2.344 2.249-5.125 4.349-5.757 4.349-.288 0-2.092 1.416-4.01 3.146-5.46 4.928-6.339 5.043-10.291 1.346-1.515-1.417-3.948-4.136-5.408-6.043-2.108-2.753-2.662-3.785-2.694-5.012-.048-1.844 2.275-6.933 3.453-7.563.438-.235.856-.941.928-1.57.101-.876.382-1.173 1.2-1.268.917-.107 1.044-.292.896-1.304-.239-1.626.508-2.83 2.194-3.534 1.479-.618 2.003-1.664 1.783-3.56-.092-.8.091-1.068.796-1.17.504-.072 1.03-.494 1.171-.937.14-.443.43-.805.644-.805.213 0 .387-.457.387-1.017 0-.973 1.001-1.82 3.027-2.558.503-.184.658-.526.485-1.07-.303-.954.823-2.84 1.695-2.84.338 0 .614-.149.614-.332 0-.183.936-1.493 2.08-2.912 1.143-1.42 2.078-2.918 2.078-3.332 0-.832 2.098-2.57 3.102-2.57.404 0 .64-.38.64-1.03 0-.712.368-1.218 1.197-1.647 1.338-.692 1.714-1.392 1.714-3.193 0-.982.67-1.897 3.33-4.554 1.831-1.829 3.798-4.068 4.37-4.975.574-.907 1.227-1.649 1.453-1.649.225 0 .41-.37.41-.822 0-.452.468-1.128 1.04-1.503.571-.375 1.04-.946 1.04-1.27 0-.324.28-.697.623-.828.343-.132.624-.6.624-1.04 0-.967.89-1.37 2.269-1.023 1.35.339 1.846 2.203 1.578 5.94-.163 2.289-.02 3.434.675 5.392 1.316 3.706 1.181 4.984-.78 7.428-1.982 2.467-2.127 2.667-2.839 3.904-.865 1.507-5.556 7.106-5.952 7.106-.196 0-.357.326-.357.724 0 .397-.466 1.192-1.036 1.767-1.339 1.348-3.953 4.895-3.953 5.362 0 .199-.291.603-.647.898-.355.295-.811.845-1.013 1.222-.31.58-.178.658.854.507.678-.1 1.222-.436 1.222-.756 0-.317.257-.576.572-.576.315 0 .813-.29 1.106-.643.294-.353.78-.548 1.08-.433.3.115 1.21-.416 2.02-1.181.811-.765 2.08-1.635 2.818-1.933.739-.298 2.06-1.145 2.936-1.883 1.882-1.585 8.417-4.896 8.978-4.55.214.133.508.051.651-.181.144-.232.765-.429 1.38-.436.616-.007 1.482-.288 1.926-.623 1.83-1.385 2.501-.884 5.678 4.236 3.56 5.736 4.307 8.316 2.921 10.085-.464.592-1.633 2.386-2.597 3.986a967.23 967.23 0 01-4.322 7.069c-7.074 11.456-17.399 32.233-20.44 41.134-1.257 3.675-2.549 7.096-2.872 7.603-.323.506-.588 1.384-.588 1.95 0 .566-.187 1.145-.416 1.287-.229.141-.419 1.509-.423 3.039-.004 1.53-.294 4.091-.646 5.692-.908 4.141-1.238 13.44-.624 17.634.447 3.058 2.067 7.878 3.01 8.956.19.217.346.642.346.944 0 .303.483 1.28 1.073 2.17.6.907 1.012 2.05.936 2.59-.19 1.343-1.73 1.508-2.592.277z" fill="url(#b)" transform="translate(-2.071 -142.35)"/><g transform="translate(496.995 89.316) scale(.05524)"><circle transform="translate(-3285.015 228.18)" r="102" cy="209" cx="3781" class="fil1 str0" fill="none" stroke="#000" stroke-width="20"/><path d="M455.985 501.18v-124h49c10 0 17 1 22 4 6 2 10 6 13 11 3 6 4 12 4 19 0 9-2 16-7 22s-13 10-24 12c4 2 7 4 9 6 4 4 8 10 12 16l19 34h-18l-15-26c-4-7-8-13-10-17-3-4-6-6-8-8s-4-3-7-3c-1-1-4-1-8-1h-17v55zm14-69h32c7 0 12-1 16-2 3-2 6-4 8-8 2-3 3-7 3-11 0-6-2-11-6-14-3-4-9-6-18-6h-35z" class="fil0" stroke="#000"/></g></svg>