<svg xmlns="http://www.w3.org/2000/svg" height="800" width="1200" viewBox="-43.215 -8.575 374.53 51.45"><path d="M201.9 34.3h24.2L238.5 0h-24.2zm74.4 0l-16-18.1L288.1 0h-28.4l-25.6 15.9 14.3 18.4zM206.6 6.6L209 0h-61.9l-8.5 23.6c-.5 1.5-.6 3.2.5 4.5.4.4 3.1 3.6 3.7 4.2 1 1.1 2.2 2 4.2 2h49.6l2.4-6.5h-34.7c-2.1 0-3.1-1.6-2.6-3.2l1.6-4.3h38.4l2.4-6.6h-38.4l2.6-7.1c0-.1 38.3-.1 38.3 0zM135.5 0H73.9L61.5 34.3h23.6l10-27.7h17.6c1.9 0 2.6 1.4 2.2 2.7-.4 1.4-1 3.1-1.5 4.1-.6 1.4-2 2.5-4.1 2.5H92.8l14.3 18.2h27.1L122 20.4h7.3c3.4 0 5.4-1.8 6.3-4.1 1-2.6 3.3-8.9 4-11 1.3-3.2-.7-5.3-4.1-5.3M0 6.6h23.2l-10 27.7H36L46 6.6h21.3L69.6 0H2.4z"/></svg>